<svg width="590" height="462" viewBox="0 0 590 462" fill="none" xmlns="http://www.w3.org/2000/svg">
<mask id="mask0_2_1020" style="mask-type:alpha" maskUnits="userSpaceOnUse" x="0" y="0" width="590" height="462">
<path d="M0 0H578C584.627 0 590 5.37258 590 12V450C590 456.627 584.627 462 578 462H0V0Z" fill="white"/>
</mask>
<g mask="url(#mask0_2_1020)">
<rect width="1" height="462" fill="#DDDFE2"/>
<path d="M316.59 154.368C317.758 155.536 318.106 157.575 317.526 160.456C316.95 163.314 315.484 166.862 313.234 170.873C308.738 178.887 301.168 188.641 291.586 198.224C282.003 207.806 272.249 215.376 264.235 219.873C260.224 222.123 256.675 223.589 253.818 224.164C250.937 224.744 248.898 224.396 247.73 223.228L233.226 208.724L302.086 139.864L316.59 154.368Z" fill="#1A1A1C" stroke="#1A1A1C"/>
<ellipse cx="267.491" cy="174.129" rx="49.1912" ry="13.8302" transform="rotate(-45 267.491 174.129)" fill="#EBEDF0" stroke="#1A1A1C"/>
<path d="M283.254 214.913C283.516 213.77 284.631 212.759 286.708 211.989C288.762 211.226 291.625 210.752 295.11 210.593C302.072 210.276 311.403 211.224 321.443 213.522C331.484 215.821 340.297 219.027 346.428 222.341C349.497 224 351.868 225.672 353.386 227.252C354.921 228.85 355.485 230.246 355.224 231.388L351.817 246.269L279.848 229.793L283.254 214.913Z" fill="#1A1A1C" stroke="#1A1A1C"/>
<ellipse cx="315.754" cy="238.322" rx="36.9102" ry="10.3774" transform="rotate(-167.106 315.754 238.322)" fill="#EBEDF0" stroke="#1A1A1C"/>
<path d="M321.623 76.6077L208.205 147.482L197.243 197.675M321.623 76.6077L390.654 203.652L377.64 249.208M321.623 76.6077L359.891 209.713M321.623 76.6077L234.424 173.872M197.243 197.675L208.205 256.393L270.893 306.26M197.243 197.675L234.424 173.872M270.893 306.26L341.787 294.552L377.64 249.208M270.893 306.26L286.954 247.602M377.64 249.208L359.891 209.713M359.891 209.713L286.954 247.602M286.954 247.602L234.424 173.872" stroke="#1A1A1C"/>
<path d="M150.411 98.1192L168.5 128.529L120.698 154.628L115.105 100.453L150.411 98.1192Z" fill="#EBEDF0"/>
<path d="M115.105 100.453L131.667 133.767M115.105 100.453L150.411 98.1192L168.5 128.529M115.105 100.453L120.698 154.628M131.667 133.767L168.5 128.529M131.667 133.767L120.698 154.628M168.5 128.529L120.698 154.628" stroke="#1A1A1C"/>
<path d="M167.921 128.424L150.411 98.9923L115.244 100.725L131.586 133.587L167.921 128.424Z" fill="#1A1A1C"/>
<path d="M121.119 89.015L170.961 59.0381L138.47 120.828L121.119 89.015Z" fill="white" stroke="#1A1A1C" stroke-linejoin="round"/>
<path d="M174.514 117.091L170.961 59.038L138.47 120.828L174.514 117.091Z" fill="white" stroke="#1A1A1C" stroke-linejoin="round"/>
<rect x="402.69" y="294.7" width="52.6409" height="52.6409" transform="rotate(-19.7206 402.69 294.7)" fill="#EBEDF0" stroke="#1A1A1C" stroke-linejoin="round"/>
<rect x="418.887" y="260.402" width="52.6409" height="52.6409" transform="rotate(-19.7206 418.887 260.402)" fill="#EBEDF0" stroke="#1A1A1C" stroke-linejoin="round"/>
<path d="M436.601 310.059L427.834 285.601L452.292 276.834L461.06 301.292L436.601 310.059Z" fill="#1A1A1C" stroke="#1A1A1C" stroke-linejoin="round"/>
<path d="M418.784 260.353L402.586 294.651L451.898 276.975L468.489 242.536L418.784 260.353Z" fill="white" stroke="#1A1A1C" stroke-linejoin="round"/>
<path d="M420.404 344.357L436.601 310.059L486.307 292.242L470.109 326.539L420.404 344.357Z" stroke="#1A1A1C" stroke-linejoin="round"/>
<path d="M103.963 355.306L175.885 297.902L141.252 400.812L103.963 355.306Z" fill="#EBEDF0" stroke="#1A1A1C" stroke-linejoin="round"/>
<path d="M198.468 387.11L175.885 297.902L141.252 400.812L198.468 387.11Z" fill="#1A1A1C" stroke="#1A1A1C" stroke-linejoin="round"/>
<path d="M103.92 355.433L160.843 342.6L198.425 387.237" stroke="#1A1A1C" stroke-linejoin="round"/>
<path d="M160.843 342.601L104.773 355.009L175.885 297.902L160.843 342.601Z" fill="white" stroke="#1A1A1C" stroke-linejoin="round"/>
<circle cx="425" cy="107" r="13.5" fill="#EBEDF0" stroke="#1A1A1C"/>
<circle cx="321" cy="382" r="32.5" fill="#EBEDF0" stroke="#1A1A1C"/>
<circle cx="161" cy="224" r="5.5" fill="#EBEDF0" stroke="#1A1A1C"/>
</g>
</svg>
