<svg width="40" height="40" viewBox="0 0 40 40" fill="none" xmlns="http://www.w3.org/2000/svg">
<circle cx="20" cy="20" r="20" fill="#1A1A1C"/>
<path fill-rule="evenodd" clip-rule="evenodd" d="M10.2941 19.2089C15.7821 16.7 19.4417 15.046 21.2727 14.2469C26.5007 11.9652 27.5871 11.5689 28.2951 11.5558C28.4509 11.5529 28.7991 11.5934 29.0246 11.7855C29.2151 11.9476 29.2675 12.1667 29.2925 12.3204C29.3176 12.4741 29.3488 12.8244 29.324 13.098C29.0407 16.2214 27.8148 23.8012 27.1912 27.2995C26.9273 28.7797 26.4077 29.2761 25.9046 29.3246C24.8114 29.4302 23.9813 28.5666 22.9224 27.8383C21.2655 26.6986 20.3295 25.9892 18.7212 24.8771C16.8625 23.592 18.0674 22.8856 19.1267 21.7312C19.4039 21.4291 24.2207 16.832 24.3139 16.4149C24.3256 16.3628 24.3364 16.1684 24.2263 16.0657C24.1163 15.963 23.9538 15.9982 23.8366 16.0261C23.6704 16.0656 21.0235 17.9014 15.8959 21.5332C15.1446 22.0745 14.464 22.3383 13.8543 22.3245C13.1822 22.3092 11.8892 21.9257 10.928 21.5978C9.74904 21.1957 8.81203 20.9831 8.89362 20.3002C8.93612 19.9445 9.40295 19.5807 10.2941 19.2089Z" fill="white"/>
</svg>
