<svg width="40" height="40" viewBox="0 0 40 40" fill="none" xmlns="http://www.w3.org/2000/svg">
<circle cx="20" cy="20" r="20" fill="#1A1A1C"/>
<path d="M28.9889 14.6863C28.4794 15.4316 27.8633 16.0667 27.1407 16.5915C27.1483 16.698 27.1521 16.8577 27.1521 17.0707C27.1521 18.0595 27.0076 19.0482 26.7186 20.037C26.4296 21.0181 25.9885 21.9612 25.3952 22.8663C24.8096 23.7714 24.1098 24.5738 23.296 25.2736C22.4822 25.9657 21.501 26.5209 20.3525 26.9393C19.2041 27.35 17.9757 27.5553 16.6675 27.5553C14.6063 27.5553 12.7201 27.0039 11.0088 25.9011C11.275 25.9315 11.5716 25.9467 11.8987 25.9467C13.61 25.9467 15.1349 25.4219 16.4736 24.3723C15.675 24.3571 14.96 24.1137 14.3287 23.6421C13.6974 23.163 13.2639 22.5545 13.0281 21.8167C13.2791 21.8548 13.5111 21.8738 13.7241 21.8738C14.0511 21.8738 14.3744 21.8319 14.6938 21.7483C13.842 21.5733 13.1346 21.1512 12.5718 20.4819C12.0166 19.805 11.7389 19.0216 11.7389 18.1317V18.0861C12.2561 18.3751 12.8114 18.531 13.4046 18.5538C12.9026 18.2192 12.5033 17.7818 12.2067 17.2418C11.9101 16.7018 11.7618 16.1162 11.7618 15.4849C11.7618 14.8156 11.9291 14.1957 12.2637 13.6253C13.1841 14.7585 14.3021 15.6674 15.6179 16.3519C16.9413 17.0289 18.356 17.4054 19.862 17.4814C19.8011 17.1924 19.7707 16.911 19.7707 16.6372C19.7707 15.618 20.1282 14.7509 20.8431 14.036C21.5657 13.3134 22.4365 12.9521 23.4557 12.9521C24.5205 12.9521 25.418 13.34 26.1482 14.1158C26.9772 13.9561 27.7568 13.6595 28.487 13.226C28.2055 14.1006 27.6655 14.7775 26.8669 15.2567C27.5743 15.1807 28.2816 14.9905 28.9889 14.6863Z" fill="white"/>
</svg>
