<svg width="80" height="81" viewBox="0 0 80 81" fill="none" xmlns="http://www.w3.org/2000/svg">
<path d="M11.2721 54.5285L10.4177 53.2331C8.23604 49.9257 8.01907 45.6553 9.85056 42.0714L21.2654 19.7346C23.0621 16.2187 26.2219 13.5965 29.9795 12.503L69.5096 0.999976" stroke="url(#paint0_linear_2_2066)"/>
<path d="M47.9066 61.218L41.7195 58.816C41.4595 56.1575 39.859 52.9698 39.0913 51.7083L53.3962 43.1379C54.7159 43.8044 55.7775 44.9292 56.5604 46.0447C57.6889 47.6527 57.4966 49.7702 56.599 51.5533L56.4472 51.8547C55.8489 53.0431 54.6378 53.7953 53.3261 53.7932L52.981 53.7926C52.5087 53.7919 52.2549 54.3615 52.5729 54.7084C53.5931 55.8211 53.843 57.4536 53.2075 58.8523L53.1227 59.0388C52.2128 61.0412 49.9193 61.9994 47.9066 61.218Z" fill="#1A1A1C"/>
<path d="M20.3011 45.3769L30.7033 31.9442C31.5631 30.8339 32.9253 30.2444 34.3004 30.3876L37.0729 30.6762C40.4221 31.0249 41.7845 35.1626 39.3343 37.5441L25.1447 51.3354C23.3472 53.0824 23.6259 56.041 25.7112 57.3494V57.3494C26.9022 58.0967 28.4168 58.1091 29.6446 57.3817L61.2093 38.6819L76.6127 30.8007" stroke="url(#paint1_linear_2_2066)"/>
<path d="M39.1252 51.8501C40.0945 53.3787 40.8345 55.1026 41.2825 56.9822C43.3947 65.8444 38.2132 74.8131 29.7093 77.0143C21.2054 79.2156 12.5993 73.8157 10.4871 64.9535C8.7948 57.8531 11.7845 50.6843 17.4137 46.9825C18.8105 46.064 20.3697 45.3589 22.0603 44.9213C25.2556 44.0942 28.4654 44.3403 31.3396 45.4399" stroke="#1A1A1C"/>
<defs>
<linearGradient id="paint0_linear_2_2066" x1="34.7548" y1="9.9962" x2="70.313" y2="0.313117" gradientUnits="userSpaceOnUse">
<stop/>
<stop offset="1" stop-opacity="0"/>
</linearGradient>
<linearGradient id="paint1_linear_2_2066" x1="42.0002" y1="49.5" x2="74.6307" y2="30.3697" gradientUnits="userSpaceOnUse">
<stop stop-color="#1A1A1C"/>
<stop offset="1" stop-color="#1A1A1C" stop-opacity="0"/>
</linearGradient>
</defs>
</svg>
