<svg width="100" height="100" viewBox="0 0 100 100" fill="none" xmlns="http://www.w3.org/2000/svg">
<path d="M18.4932 44.5206C8.27969 54.7341 8.27969 71.2935 18.4932 81.507C28.7067 91.7205 45.2661 91.7205 55.4796 81.507C60.5544 76.4322 63.1077 69.7907 63.1394 63.1394" stroke="url(#paint0_linear_2_2081)" stroke-linecap="round" stroke-linejoin="round"/>
<path d="M81.5068 55.4797C91.7203 45.2661 91.7203 28.7068 81.5068 18.4932C71.2933 8.27973 54.7339 8.27973 44.5204 18.4932C39.4456 23.5681 36.8923 30.2096 36.8606 36.8609" stroke="url(#paint1_linear_2_2081)" stroke-linecap="round" stroke-linejoin="round"/>
<path d="M55.4796 44.5206C45.2661 34.3071 28.7067 34.3071 18.4932 44.5206C8.27969 54.7341 8.27969 71.2935 18.4932 81.507" stroke="#1A1A1C" stroke-linecap="round" stroke-linejoin="round"/>
<path d="M44.5204 55.4796C54.7339 65.6932 71.2933 65.6932 81.5068 55.4797C91.7203 45.2661 91.7203 28.7068 81.5068 18.4932" stroke="#1A1A1C" stroke-linecap="round" stroke-linejoin="round"/>
<path d="M55.3636 38.0001L49 46.1819L59 48.0001L55.3636 38.0001Z" fill="#1A1A1C"/>
<path d="M41 52.0001L44.6364 62.0001L51 53.8183L41 52.0001Z" fill="#1A1A1C"/>
<defs>
<linearGradient id="paint0_linear_2_2081" x1="47.5" y1="51.9999" x2="62" y2="51.4999" gradientUnits="userSpaceOnUse">
<stop stop-color="#1A1A1C"/>
<stop offset="1" stop-color="#1A1A1C" stop-opacity="0"/>
</linearGradient>
<linearGradient id="paint1_linear_2_2081" x1="49" y1="43" x2="37.5" y2="42" gradientUnits="userSpaceOnUse">
<stop stop-color="#1A1A1C"/>
<stop offset="1" stop-color="#1A1A1C" stop-opacity="0"/>
</linearGradient>
</defs>
</svg>
